<?xml version="1.0" encoding="UTF-8" standalone="no"?>
<!-- Generator: Gravit.io -->
<svg xmlns="http://www.w3.org/2000/svg" xmlns:xlink="http://www.w3.org/1999/xlink" style="isolation:isolate" viewBox="0 0 128 128" width="128pt" height="128pt"><defs><clipPath id="_clipPath_o0OvC4nX4pddASLUcJcfs8gehicI0rvt"><rect width="128" height="128"/></clipPath></defs><g clip-path="url(#_clipPath_o0OvC4nX4pddASLUcJcfs8gehicI0rvt)"><linearGradient id="_lgradient_0" x1="-0.09515139477401144" y1="-0.056596486581920805" x2="0.2252935204802259" y2="1.1377891066384178"><stop offset="1.2499999999999956%" style="stop-color:#1E093C"/><stop offset="99.58333333333333%" style="stop-color:#030106"/></linearGradient><rect width="128" height="128" style="fill:url(#_lgradient_0);"/><path d=" M 65.676 46.258 C 68.272 46.529 70.336 48.561 70.648 51.153 L 71.13 55.157 C 71.389 57.31 72.853 59.128 74.902 59.84 L 78.788 61.191 C 81.278 62.057 82.845 64.522 82.57 67.144 L 82.503 67.785 C 82.245 70.255 80.411 72.27 77.976 72.76 L 73.19 73.722 C 71.276 74.107 69.694 75.448 69.001 77.274 L 67.673 80.774 C 66.759 83.183 64.337 84.674 61.774 84.406 L 61.107 84.336 C 58.589 84.073 56.55 82.173 56.108 79.68 L 55.305 75.144 C 54.953 73.158 53.574 71.507 51.682 70.808 L 48.068 69.473 C 45.633 68.574 44.119 66.138 44.389 63.557 L 44.428 63.179 C 44.704 60.545 46.765 58.451 49.394 58.134 L 54.126 57.563 C 56.462 57.281 58.381 55.588 58.953 53.306 L 59.666 50.462 C 60.343 47.76 62.905 45.968 65.676 46.258 L 65.676 46.258 L 65.676 46.258 L 65.676 46.258 Z  M 22.87 29.024 C 22.769 28.183 22.099 27.524 21.257 27.435 C 20.358 27.341 19.527 27.923 19.307 28.8 L 19.176 29.324 C 18.93 30.304 18.106 31.031 17.102 31.152 L 16.037 31.281 C 15.156 31.387 14.463 32.083 14.36 32.963 C 14.256 33.844 14.769 34.681 15.601 34.989 L 16.219 35.217 C 17.141 35.557 17.813 36.362 17.985 37.33 L 18.134 38.173 C 18.29 39.052 19.014 39.719 19.903 39.803 C 20.792 39.886 21.627 39.366 21.944 38.531 L 22.156 37.973 C 22.493 37.085 23.262 36.433 24.192 36.246 L 25.149 36.054 C 26.024 35.878 26.672 35.138 26.733 34.248 C 26.794 33.358 26.251 32.538 25.409 32.245 L 24.784 32.028 C 23.793 31.683 23.084 30.804 22.959 29.762 L 22.87 29.024 L 22.87 29.024 L 22.87 29.024 Z  M 47.034 108.979 C 46.879 107.917 46.023 107.095 44.955 106.984 C 43.807 106.863 42.741 107.596 42.442 108.711 L 42.346 109.071 C 42.045 110.193 41.081 111.01 39.925 111.122 L 38.199 111.29 C 37.195 111.388 36.399 112.178 36.294 113.181 C 36.191 114.166 36.783 115.091 37.72 115.41 L 38.716 115.749 C 39.866 116.141 40.725 117.111 40.974 118.301 L 41.107 118.938 C 41.34 120.052 42.272 120.883 43.406 120.989 C 44.539 121.094 45.608 120.448 46.043 119.397 L 46.217 118.974 C 46.639 117.954 47.555 117.223 48.643 117.038 L 50.159 116.781 C 51.123 116.617 51.86 115.832 51.962 114.859 C 52.069 113.833 51.443 112.873 50.461 112.557 L 49.301 112.184 C 48.146 111.813 47.303 110.818 47.128 109.618 L 47.034 108.979 L 47.034 108.979 L 47.034 108.979 Z  M 83.926 16.598 C 83.825 15.757 83.155 15.098 82.313 15.01 C 81.414 14.916 80.583 15.497 80.363 16.374 L 80.232 16.899 C 79.986 17.879 79.162 18.606 78.158 18.727 L 77.093 18.856 C 76.212 18.962 75.519 19.657 75.416 20.538 C 75.312 21.419 75.826 22.256 76.657 22.563 L 77.275 22.791 C 78.197 23.132 78.869 23.936 79.041 24.904 L 79.19 25.747 C 79.345 26.619 80.057 27.283 80.938 27.375 C 81.834 27.469 82.68 26.948 83 26.106 L 83.212 25.547 C 83.549 24.66 84.318 24.008 85.248 23.82 L 86.205 23.628 C 87.08 23.452 87.729 22.713 87.789 21.823 C 87.85 20.933 87.307 20.112 86.465 19.819 L 85.84 19.602 C 84.849 19.258 84.14 18.378 84.015 17.336 L 83.926 16.598 L 83.926 16.598 L 83.926 16.598 Z  M 45.043 29.78 L 31.225 34.922 L 24.369 51.096 L 23.03 67.86 L 24.369 84.463 L 31.225 96.728 L 45.043 103.851 L 63.52 107.707 L 81.194 103.851 L 95.655 97.799 L 101.653 84.463 L 101.653 51.096 L 96.03 37.975 L 81.194 29.78 L 62.235 28.067 L 45.043 29.78 L 45.043 29.78 L 45.043 29.78 Z  M 76.428 96.567 L 88.425 91.64 L 76.428 95.335 L 63.199 96.567 L 47.292 93.086 L 36.527 81.464 L 34.706 64.807 L 36.741 51.739 L 42.204 41.992 L 34.706 50.936 L 31.439 64.807 L 32.671 82.481 L 37.759 90.462 L 46.06 96.567 L 64.431 98.602 L 76.428 96.567 Z " fill-rule="evenodd" fill="rgb(68,68,68)" style="mix-blend-mode:linear_dodge;"/><g><linearGradient id="_lgradient_1" x1="0.578541917713892" y1="0" x2="0.5785419177138917" y2="1" gradientTransform="matrix(115.366,0,0,21.603,6.317,100.397)" gradientUnits="userSpaceOnUse"><stop offset="0%" stop-opacity="1" style="stop-color:rgb(235,161,212)"/><stop offset="63%" stop-opacity="1" style="stop-color:rgb(203,174,205)"/><stop offset="100%" stop-opacity="1" style="stop-color:rgb(232,232,230)"/></linearGradient><path d=" M 57.169 111.199 L 6.317 108.113 L 24.897 122 L 114.852 122 L 121.683 115.828 L 119.406 100.397 L 96.636 100.397 L 86.769 111.199 L 57.169 111.199 Z " fill="url(#_lgradient_1)"/><linearGradient id="_lgradient_2" x1="0.5785433208141129" y1="-3.552713678800501e-15" x2="0.5785433208141126" y2="1" gradientTransform="matrix(46.146,0,0,37.756,41.975,67.463)" gradientUnits="userSpaceOnUse"><stop offset="0%" stop-opacity="1" style="stop-color:rgb(235,161,212)"/><stop offset="63%" stop-opacity="1" style="stop-color:rgb(203,174,205)"/><stop offset="100%" stop-opacity="1" style="stop-color:rgb(232,232,230)"/></linearGradient><path d=" M 43.414 105.219 L 81.602 105.219 C 81.602 105.219 81.314 93.619 82.533 86.342 C 83.804 78.753 88.122 67.463 88.122 67.463 L 54.591 67.463 C 54.591 67.463 46.979 78.54 43.414 86.342 C 40.176 93.429 43.414 105.219 43.414 105.219" fill="url(#_lgradient_2)"/><path d=" M 54.92 105.219 L 68.195 105.219 C 68.195 105.219 67.907 93.619 69.126 86.342 C 70.397 78.753 74.714 67.463 74.714 67.463 L 60.853 67.463 C 60.853 67.463 58.485 78.54 54.92 86.342 C 51.682 93.429 54.92 105.219 54.92 105.219" fill="rgb(235,161,212)"/><linearGradient id="_lgradient_3" x1="0.5785469352764672" y1="-3.552713678800501e-15" x2="0.578546935276467" y2="1" gradientTransform="matrix(38.611,0,0,37.756,11.755,67.463)" gradientUnits="userSpaceOnUse"><stop offset="0%" stop-opacity="1" style="stop-color:rgb(235,161,212)"/><stop offset="63%" stop-opacity="1" style="stop-color:rgb(203,174,205)"/><stop offset="100%" stop-opacity="1" style="stop-color:rgb(232,232,230)"/></linearGradient><path d=" M 11.755 105.219 L 39.878 105.219 C 39.878 105.219 39.874 93.619 40.927 86.342 C 42.025 78.753 50.366 67.463 50.366 67.463 L 44.735 67.463 L 28.342 86.342 L 11.755 105.219 Z " fill="url(#_lgradient_3)"/><linearGradient id="_lgradient_4" x1="0.5785574699783709" y1="3.552713678800501e-15" x2="0.5785574699783707" y2="1" gradientTransform="matrix(30.817,0,0,29.365,52.463,36)" gradientUnits="userSpaceOnUse"><stop offset="0%" stop-opacity="1" style="stop-color:rgb(235,161,212)"/><stop offset="63%" stop-opacity="1" style="stop-color:rgb(203,174,205)"/><stop offset="100%" stop-opacity="1" style="stop-color:rgb(232,232,230)"/></linearGradient><path d=" M 53.575 65.365 L 83.083 65.365 C 83.083 65.365 83.526 56.399 83.083 50.683 C 82.635 44.896 80.78 36 80.78 36 L 62.212 36 C 62.212 36 56.329 44.615 53.575 50.683 C 51.072 56.196 53.575 65.365 53.575 65.365 Z " fill="url(#_lgradient_4)"/><path d=" M 60.854 65.365 L 73.424 65.365 C 73.424 65.365 73.217 57.392 74.159 51.732 C 75.141 45.83 75.887 36 75.887 36 L 69.491 36 C 69.491 36 63.609 44.615 60.855 50.683 C 58.352 56.196 60.854 65.365 60.854 65.365" fill="rgb(235,161,212)"/></g><linearGradient id="_lgradient_5" x1="0.5785433208141129" y1="-3.552713678800501e-15" x2="0.5785433208141126" y2="1" gradientTransform="matrix(103.356,0,0,48.31,4.84,7.69)" gradientUnits="userSpaceOnUse"><stop offset="2.5%" stop-opacity="1" style="stop-color:rgb(132,236,182)"/><stop offset="62.916666666666664%" stop-opacity="1" style="stop-color:rgb(174,205,198)"/><stop offset="100%" stop-opacity="1" style="stop-color:rgb(232,232,230)"/></linearGradient><path d=" M 50.905 18.305 L 63.152 18.305 L 63.152 18.305 Q 63.288 18.577 63.424 18.815 L 63.424 18.815 L 63.424 18.815 Q 63.56 19.053 63.629 19.325 L 63.629 19.325 L 61.111 19.325 L 61.111 19.325 Q 61.247 19.597 61.383 19.972 L 61.383 19.972 L 61.383 19.972 Q 61.519 20.346 61.655 20.686 L 61.655 20.686 L 50.973 20.686 L 51.381 22.047 L 56.892 22.047 L 57.096 23.068 L 56.348 23.068 L 56.348 23.068 Q 56.416 23.204 56.416 23.408 L 56.416 23.408 L 56.416 23.408 Q 56.416 23.612 56.484 23.748 L 56.484 23.748 L 54.647 23.748 L 54.715 24.428 L 56.144 24.428 L 56.144 24.428 Q 56.144 24.701 56.178 24.939 L 56.178 24.939 L 56.178 24.939 Q 56.212 25.177 56.212 25.449 L 56.212 25.449 L 58.729 25.449 L 58.729 25.449 Q 58.798 25.721 58.798 25.925 L 58.798 25.925 L 58.798 25.925 Q 58.798 26.129 58.798 26.402 L 58.798 26.402 L 58.798 26.47 L 52.402 26.47 L 52.402 26.47 Q 52.402 26.81 52.436 27.15 L 52.436 27.15 L 52.436 27.15 Q 52.47 27.49 52.47 27.831 L 52.47 27.831 L 53.898 27.831 L 53.898 27.831 Q 53.898 28.171 53.932 28.511 L 53.932 28.511 L 53.932 28.511 Q 53.967 28.851 53.967 29.191 L 53.967 29.191 L 56.416 29.191 L 56.416 29.532 L 55.463 29.532 L 55.463 30.892 L 55.736 30.892 L 55.736 31.913 L 59.75 31.913 L 59.75 33.274 L 55.94 33.274 L 55.94 33.954 L 55.531 33.954 L 55.531 33.954 Q 55.531 34.09 55.531 34.295 L 55.531 34.295 L 55.531 34.295 Q 55.531 34.499 55.463 34.635 L 55.463 34.635 L 54.239 34.635 L 54.239 35.996 L 54.375 35.996 L 54.375 35.996 Q 54.307 36.2 54.307 36.54 L 54.307 36.54 L 54.307 36.676 L 56.824 36.676 L 56.824 36.676 Q 56.824 36.948 56.79 37.186 L 56.79 37.186 L 56.79 37.186 Q 56.756 37.424 56.756 37.697 L 56.756 37.697 L 57.777 37.697 L 57.777 37.697 Q 57.777 38.037 57.743 38.377 L 57.743 38.377 L 57.743 38.377 Q 57.709 38.717 57.641 39.057 L 57.641 39.057 L 56.144 39.057 L 56.144 39.057 Q 56.076 39.194 56.076 39.398 L 56.076 39.398 L 56.076 39.398 Q 56.076 39.602 56.008 39.738 L 56.008 39.738 L 47.843 39.738 L 47.843 39.738 Q 47.843 40.01 47.707 40.418 L 47.707 40.418 L 54.851 40.418 L 54.851 40.418 Q 54.715 40.827 54.715 41.099 L 54.715 41.099 L 55.736 41.099 L 55.736 41.099 Q 55.668 41.371 55.634 41.609 L 55.634 41.609 L 55.634 41.609 Q 55.6 41.847 55.463 42.119 L 55.463 42.119 L 55.259 42.8 L 53.286 42.8 L 53.15 43.14 L 56.348 43.14 L 56.348 43.14 Q 56.212 43.412 56.212 43.48 L 56.212 43.48 L 54.171 43.48 L 54.035 43.82 L 53.967 43.82 L 53.967 43.82 Q 53.83 44.161 53.694 44.501 L 53.694 44.501 L 53.694 44.501 Q 53.558 44.841 53.354 45.181 L 53.354 45.181 L 52.333 45.181 L 51.585 46.542 L 52.742 46.542 L 52.333 47.223 L 52.402 47.223 L 52.402 47.223 Q 52.265 47.359 52.129 47.563 L 52.129 47.563 L 52.129 47.563 Q 51.993 47.767 51.857 47.903 L 51.857 47.903 L 51.381 47.903 L 51.381 47.903 Q 51.177 48.107 51.109 48.243 L 51.109 48.243 L 51.109 48.243 Q 50.905 48.515 50.7 48.754 L 50.7 48.754 L 50.7 48.754 Q 50.496 48.992 50.224 49.264 L 50.224 49.264 L 50.02 49.264 L 50.02 49.264 Q 49.68 49.604 49.306 49.944 L 49.306 49.944 L 49.306 49.944 Q 48.931 50.284 48.523 50.625 L 48.523 50.625 L 49.136 50.625 L 47.707 51.645 L 47.775 51.645 L 47.775 51.645 Q 47.23 51.986 46.618 52.326 L 46.618 52.326 L 46.618 52.326 Q 46.006 52.666 45.325 53.006 L 45.325 53.006 L 45.257 53.006 L 45.257 53.006 Q 44.577 53.346 43.556 53.687 L 43.556 53.687 L 43.624 53.687 L 43.624 53.687 Q 42.263 54.163 40.766 54.503 L 40.766 54.503 L 40.766 54.503 Q 39.269 54.843 37.704 55.047 L 37.704 55.047 L 39.133 55.047 L 39.133 55.047 Q 38.045 55.183 36.888 55.252 L 36.888 55.252 L 36.888 55.252 Q 35.731 55.32 34.506 55.32 L 34.506 55.32 L 14.57 55.32 L 14.57 55.32 Q 13.958 55.32 13.617 55.047 L 13.617 55.047 L 12.189 55.047 L 12.189 55.047 Q 11.508 54.639 11.372 53.687 L 11.372 53.687 L 11.304 53.687 L 11.304 53.006 L 11.44 53.006 L 11.44 51.645 L 11.304 51.645 L 11.304 50.625 L 10.76 50.625 L 10.76 49.264 L 10.964 49.264 L 10.964 48.243 L 10.896 48.243 L 10.896 47.903 L 11.44 47.903 L 11.44 47.223 L 11.372 47.223 L 11.372 46.542 L 10.147 46.542 L 10.147 45.181 L 11.236 45.181 L 11.236 43.82 L 11.304 43.82 L 11.304 43.48 L 13.345 43.48 L 13.345 43.14 L 10.215 43.14 L 10.215 42.8 L 12.189 42.8 L 12.189 41.099 L 11.236 41.099 L 11.236 40.418 L 11.168 40.418 L 11.168 39.738 L 12.937 39.738 L 12.937 39.057 L 5.112 39.057 L 5.112 37.697 L 4.84 37.697 L 4.84 36.676 L 5.725 36.676 L 5.725 35.996 L 8.514 35.996 L 8.514 34.635 L 10.283 34.635 L 10.283 33.954 L 11.304 33.954 L 11.304 33.274 L 12.393 33.274 L 12.393 31.913 L 13.958 31.913 L 13.958 30.892 L 15.455 30.892 L 15.455 29.532 L 10.896 29.532 L 10.896 29.191 L 9.399 29.191 L 9.399 27.831 L 6.405 27.831 L 6.405 26.47 L 14.162 26.47 L 14.162 25.449 L 8.174 25.449 L 8.174 24.428 L 11.44 24.428 L 11.44 23.748 L 11.304 23.748 L 11.304 23.068 L 10.76 23.068 L 10.76 22.047 L 7.834 22.047 L 7.834 20.686 L 18.448 20.686 L 18.448 19.325 L 20.966 19.325 L 20.966 18.305 L 8.718 18.305 L 8.718 16.944 L 16.747 16.944 L 16.747 16.604 L 10.419 16.604 L 10.419 16.263 L 23.279 16.263 L 23.279 14.902 L 21.646 14.902 L 21.646 14.562 L 5.452 14.562 L 5.452 13.201 L 7.426 13.201 L 7.426 12.181 L 11.644 12.181 L 11.644 11.841 L 13.89 11.841 L 13.89 11.16 L 12.665 11.16 L 12.665 10.82 L 11.236 10.82 L 11.236 10.14 L 11.372 10.14 L 11.372 9.527 L 11.372 9.527 Q 11.372 9.391 11.406 9.289 L 11.406 9.289 L 11.406 9.289 Q 11.44 9.187 11.44 9.119 L 11.44 9.119 L 11.712 9.119 L 11.712 9.119 Q 12.052 7.69 13.549 7.69 L 13.549 7.69 L 33.146 7.69 L 33.146 7.69 Q 38.385 7.69 42.671 9.119 L 42.671 9.119 L 42.399 9.119 L 42.399 9.119 Q 43.624 9.527 44.917 10.14 L 44.917 10.14 L 44.781 10.14 L 44.781 10.14 Q 45.121 10.276 45.495 10.446 L 45.495 10.446 L 45.495 10.446 Q 45.869 10.616 46.142 10.82 L 46.142 10.82 L 47.571 10.82 L 48.183 11.16 L 49.34 11.16 L 49.34 11.16 Q 49.68 11.296 49.918 11.5 L 49.918 11.5 L 49.918 11.5 Q 50.156 11.704 50.428 11.841 L 50.428 11.841 L 48.183 11.841 L 48.183 11.841 Q 48.319 11.909 48.455 11.977 L 48.455 11.977 L 48.455 11.977 Q 48.591 12.045 48.659 12.181 L 48.659 12.181 L 44.441 12.181 L 45.733 13.201 L 43.692 13.201 L 43.692 13.201 Q 44.441 13.814 45.053 14.562 L 45.053 14.562 L 61.247 14.562 L 61.247 14.562 Q 61.315 14.63 61.383 14.698 L 61.383 14.698 L 61.383 14.698 Q 61.451 14.766 61.519 14.902 L 61.519 14.902 L 63.22 14.902 L 63.22 14.902 Q 63.492 15.175 63.765 15.549 L 63.765 15.549 L 63.765 15.549 Q 64.037 15.923 64.241 16.263 L 64.241 16.263 L 51.381 16.263 L 51.381 16.263 Q 51.449 16.331 51.517 16.399 L 51.517 16.399 L 51.517 16.399 Q 51.585 16.467 51.653 16.604 L 51.653 16.604 L 57.981 16.604 L 58.185 16.944 L 50.156 16.944 L 50.156 16.944 Q 50.632 17.624 50.905 18.305 L 50.905 18.305 Z  M 38.385 23.068 L 39.133 23.068 L 39.133 23.068 Q 38.725 22.455 38.113 22.047 L 38.113 22.047 L 32.601 22.047 L 32.601 22.047 Q 31.104 20.958 28.927 20.958 L 28.927 20.958 L 24.844 20.958 L 24.844 22.047 L 27.77 22.047 L 27.77 23.068 L 28.315 23.068 L 28.315 23.748 L 28.451 23.748 L 28.451 24.428 L 25.185 24.428 L 25.185 25.449 L 31.172 25.449 L 31.172 26.47 L 23.416 26.47 L 23.416 27.831 L 26.409 27.831 L 26.409 29.191 L 27.906 29.191 L 27.906 29.532 L 32.465 29.532 L 32.465 30.892 L 30.968 30.892 L 30.968 31.913 L 29.403 31.913 L 29.403 33.274 L 28.315 33.274 L 28.315 33.954 L 27.294 33.954 L 27.294 34.635 L 25.525 34.635 L 25.525 35.996 L 22.735 35.996 L 22.735 36.676 L 21.851 36.676 L 21.851 37.697 L 22.123 37.697 L 22.123 39.057 L 29.948 39.057 L 29.948 39.738 L 28.178 39.738 L 28.178 40.418 L 28.247 40.418 L 28.247 41.099 L 29.199 41.099 L 29.199 42.051 L 33.622 42.051 L 33.622 42.051 Q 35.595 42.051 36.956 41.099 L 36.956 41.099 L 35.867 41.099 L 35.867 41.099 Q 36.071 40.963 36.276 40.793 L 36.276 40.793 L 36.276 40.793 Q 36.48 40.622 36.616 40.418 L 36.616 40.418 L 29.539 40.418 L 29.539 40.418 Q 29.675 40.282 29.812 40.112 L 29.812 40.112 L 29.812 40.112 Q 29.948 39.942 30.016 39.738 L 30.016 39.738 L 38.181 39.738 L 38.181 39.738 Q 38.317 39.602 38.385 39.432 L 38.385 39.432 L 38.385 39.432 Q 38.453 39.262 38.521 39.057 L 38.521 39.057 L 40.086 39.057 L 40.086 39.057 Q 40.222 38.717 40.29 38.377 L 40.29 38.377 L 40.29 38.377 Q 40.358 38.037 40.426 37.697 L 40.426 37.697 L 39.405 37.697 L 39.405 37.697 Q 39.474 37.424 39.474 37.186 L 39.474 37.186 L 39.474 37.186 Q 39.474 36.948 39.542 36.676 L 39.542 36.676 L 37.024 36.676 L 37.024 36.54 L 37.024 36.54 Q 37.024 36.404 37.058 36.268 L 37.058 36.268 L 37.058 36.268 Q 37.092 36.132 37.092 35.996 L 37.092 35.996 L 36.956 35.996 L 36.956 35.996 Q 36.956 35.655 36.956 35.281 L 36.956 35.281 L 36.956 35.281 Q 36.956 34.907 37.024 34.635 L 37.024 34.635 L 38.249 34.635 L 38.249 33.954 L 38.657 33.954 L 38.725 33.274 L 42.535 33.274 L 42.535 31.913 L 38.521 31.913 L 38.521 30.892 L 38.249 30.892 L 38.249 29.532 L 39.201 29.532 L 39.201 29.191 L 36.684 29.191 L 36.684 27.831 L 35.187 27.831 L 35.187 27.831 Q 35.187 27.49 35.187 27.15 L 35.187 27.15 L 35.187 27.15 Q 35.187 26.81 35.119 26.47 L 35.119 26.47 L 41.515 26.47 L 41.515 26.402 L 41.515 26.402 Q 41.515 26.129 41.481 25.891 L 41.481 25.891 L 41.481 25.891 Q 41.447 25.653 41.447 25.449 L 41.447 25.449 L 38.929 25.449 L 38.929 25.449 Q 38.861 25.177 38.793 24.939 L 38.793 24.939 L 38.793 24.939 Q 38.725 24.701 38.657 24.428 L 38.657 24.428 L 37.228 24.428 L 37.228 24.428 Q 37.16 24.224 37.092 24.054 L 37.092 24.054 L 37.092 24.054 Q 37.024 23.884 36.956 23.748 L 36.956 23.748 L 38.793 23.748 L 38.793 23.748 Q 38.725 23.544 38.623 23.374 L 38.623 23.374 L 38.623 23.374 Q 38.521 23.204 38.385 23.068 L 38.385 23.068 Z  M 100.371 14.562 L 100.371 15.923 L 96.561 15.923 L 96.561 17.284 L 102.208 17.284 L 102.208 17.964 L 93.567 17.964 L 93.567 18.985 L 99.759 18.985 L 99.759 20.346 L 102.072 20.346 L 102.072 20.686 L 104.454 20.686 L 104.454 21.707 L 102.413 21.707 L 102.413 22.727 L 102.345 22.727 L 102.345 23.748 L 102.14 23.748 L 102.14 25.109 L 101.392 25.109 L 101.392 26.129 L 102.549 26.129 L 102.549 27.49 L 100.848 27.49 L 100.848 27.831 L 106.087 27.831 L 106.087 28.511 L 104.862 28.511 L 104.862 29.872 L 100.575 29.872 L 100.575 30.552 L 104.386 30.552 L 104.386 31.233 L 103.569 31.233 L 103.569 32.253 L 102.345 32.253 L 102.345 32.593 L 102.617 32.593 L 102.617 33.954 L 96.289 33.954 L 96.289 34.295 L 99.079 34.295 L 99.079 35.315 L 105.338 35.315 L 105.338 36.336 L 94.656 36.336 L 94.656 37.356 L 96.221 37.356 L 96.221 37.697 L 99.147 37.697 L 99.147 38.717 L 102.208 38.717 L 102.208 38.717 Q 102.14 38.853 102.14 39.057 L 102.14 39.057 L 102.14 39.057 Q 102.14 39.262 102.14 39.398 L 102.14 39.398 L 102.345 39.398 L 102.345 39.398 Q 102.277 39.67 102.277 39.908 L 102.277 39.908 L 102.277 39.908 Q 102.277 40.146 102.208 40.418 L 102.208 40.418 L 102.821 40.418 L 102.821 40.418 Q 102.821 40.69 102.787 40.929 L 102.787 40.929 L 102.787 40.929 Q 102.753 41.167 102.685 41.439 L 102.685 41.439 L 99.419 41.439 L 99.215 42.46 L 98.126 42.46 L 98.126 42.46 Q 98.126 42.664 98.058 42.8 L 98.058 42.8 L 106.427 42.8 L 106.223 43.48 L 103.841 43.48 L 103.841 43.48 Q 103.841 43.548 103.807 43.616 L 103.807 43.616 L 103.807 43.616 Q 103.773 43.684 103.773 43.82 L 103.773 43.82 L 101.46 43.82 L 101.46 43.82 Q 101.392 44.093 101.324 44.331 L 101.324 44.331 L 101.324 44.331 Q 101.256 44.569 101.12 44.841 L 101.12 44.841 L 98.806 44.841 L 98.398 45.862 L 103.161 45.862 L 102.617 46.882 L 93.023 46.882 L 92.41 47.903 L 100.167 47.903 L 99.691 48.583 L 99.963 48.583 L 99.963 48.583 Q 99.691 48.924 99.385 49.264 L 99.385 49.264 L 99.385 49.264 Q 99.079 49.604 98.738 49.944 L 98.738 49.944 L 96.221 49.944 L 96.221 49.944 Q 95.881 50.284 95.506 50.625 L 95.506 50.625 L 95.506 50.625 Q 95.132 50.965 94.724 51.305 L 94.724 51.305 L 93.839 51.305 L 93.839 51.305 Q 93.635 51.441 93.431 51.645 L 93.431 51.645 L 93.431 51.645 Q 93.227 51.849 92.955 51.986 L 92.955 51.986 L 95.064 51.986 L 95.064 51.986 Q 94.656 52.258 94.248 52.496 L 94.248 52.496 L 94.248 52.496 Q 93.839 52.734 93.363 53.006 L 93.363 53.006 L 93.635 53.006 L 93.635 53.006 Q 92.955 53.414 92.172 53.721 L 92.172 53.721 L 92.172 53.721 Q 91.39 54.027 90.573 54.367 L 90.573 54.367 L 90.641 54.367 L 90.641 54.367 Q 90.097 54.571 89.519 54.741 L 89.519 54.741 L 89.519 54.741 Q 88.94 54.911 88.396 55.047 L 88.396 55.047 L 88.396 55.047 Q 87.511 55.252 86.593 55.422 L 86.593 55.422 L 86.593 55.422 Q 85.674 55.592 84.722 55.728 L 84.722 55.728 L 84.654 55.728 L 84.654 55.728 Q 83.565 55.864 82.408 55.932 L 82.408 55.932 L 82.408 55.932 Q 81.251 56 80.095 56 L 80.095 56 L 80.095 56 Q 79.074 56 78.053 55.932 L 78.053 55.932 L 78.053 55.932 Q 77.033 55.864 76.012 55.728 L 76.012 55.728 L 76.08 55.728 L 76.08 55.728 Q 75.196 55.592 74.345 55.422 L 74.345 55.422 L 74.345 55.422 Q 73.495 55.252 72.678 55.047 L 72.678 55.047 L 72.61 55.047 L 72.61 55.047 Q 72.066 54.911 71.521 54.741 L 71.521 54.741 L 71.521 54.741 Q 70.977 54.571 70.433 54.367 L 70.433 54.367 L 70.433 54.367 Q 69.616 54.027 68.868 53.721 L 68.868 53.721 L 68.868 53.721 Q 68.119 53.414 67.371 53.006 L 67.371 53.006 L 67.031 53.006 L 65.398 51.986 L 63.288 51.986 L 63.288 51.986 Q 63.016 51.849 62.812 51.645 L 62.812 51.645 L 62.812 51.645 Q 62.608 51.441 62.336 51.305 L 62.336 51.305 L 63.152 51.305 L 63.152 51.305 Q 62.336 50.693 61.587 49.944 L 61.587 49.944 L 64.173 49.944 L 64.173 49.944 Q 63.833 49.604 63.526 49.264 L 63.526 49.264 L 63.526 49.264 Q 63.22 48.924 62.88 48.583 L 62.88 48.583 L 62.608 48.583 L 62.608 48.583 Q 62.472 48.447 62.336 48.243 L 62.336 48.243 L 62.336 48.243 Q 62.2 48.039 62.064 47.903 L 62.064 47.903 L 54.307 47.903 L 53.626 46.882 L 63.22 46.882 L 63.22 46.882 Q 63.084 46.61 62.948 46.372 L 62.948 46.372 L 62.948 46.372 Q 62.812 46.134 62.676 45.862 L 62.676 45.862 L 57.913 45.862 L 57.913 45.862 Q 57.777 45.59 57.675 45.351 L 57.675 45.351 L 57.675 45.351 Q 57.573 45.113 57.437 44.841 L 57.437 44.841 L 59.682 44.841 L 59.682 44.841 Q 59.614 44.569 59.512 44.331 L 59.512 44.331 L 59.512 44.331 Q 59.41 44.093 59.342 43.82 L 59.342 43.82 L 61.655 43.82 L 61.519 43.48 L 63.901 43.48 L 63.697 42.8 L 55.327 42.8 L 55.327 42.8 Q 55.327 42.596 55.259 42.46 L 55.259 42.46 L 57.096 42.46 L 56.892 41.439 L 58.593 41.439 L 58.593 41.439 Q 58.525 41.167 58.491 40.929 L 58.491 40.929 L 58.491 40.929 Q 58.457 40.69 58.457 40.418 L 58.457 40.418 L 58.661 40.418 L 58.661 40.418 Q 58.661 40.146 58.627 39.908 L 58.627 39.908 L 58.627 39.908 Q 58.593 39.67 58.593 39.398 L 58.593 39.398 L 58.593 39.33 L 58.593 39.33 Q 58.593 39.126 58.729 38.717 L 58.729 38.717 L 59.206 38.717 L 59.206 38.717 Q 59.682 37.833 60.567 37.833 L 60.567 37.833 L 74.447 37.833 L 74.447 37.833 Q 75.74 37.833 76.557 38.717 L 76.557 38.717 L 76.012 38.717 L 76.488 39.398 L 76.488 39.398 Q 76.557 39.534 76.625 39.704 L 76.625 39.704 L 76.625 39.704 Q 76.693 39.874 76.761 40.01 L 76.761 40.01 L 76.965 40.418 L 76.761 40.418 L 76.761 40.418 Q 77.101 41.031 77.373 41.439 L 77.373 41.439 L 75.74 41.439 L 75.74 41.439 Q 76.216 42.119 77.101 42.46 L 77.101 42.46 L 75.264 42.46 L 75.264 42.46 Q 75.876 42.732 77.033 42.732 L 77.033 42.732 L 77.033 42.732 Q 78.053 42.732 78.666 42.46 L 78.666 42.46 L 79.755 42.46 L 79.755 42.46 Q 80.571 42.119 81.047 41.439 L 81.047 41.439 L 84.381 41.439 L 84.381 41.439 Q 84.722 40.963 84.926 40.418 L 84.926 40.418 L 84.313 40.418 L 84.313 40.418 Q 84.381 40.214 84.449 39.942 L 84.449 39.942 L 84.449 39.942 Q 84.517 39.67 84.586 39.398 L 84.586 39.398 L 84.381 39.398 L 84.381 39.398 Q 84.449 39.262 84.449 39.092 L 84.449 39.092 L 84.449 39.092 Q 84.449 38.921 84.517 38.717 L 84.517 38.717 L 81.456 38.717 L 81.456 38.717 Q 81.456 38.445 81.49 38.207 L 81.49 38.207 L 81.49 38.207 Q 81.524 37.969 81.524 37.697 L 81.524 37.697 L 78.598 37.697 L 78.598 37.356 L 77.033 37.356 L 77.033 36.336 L 87.715 36.336 L 87.715 35.315 L 81.456 35.315 L 81.456 34.295 L 78.666 34.295 L 78.666 33.954 L 84.994 33.954 L 84.994 32.593 L 84.722 32.593 L 84.722 32.253 L 85.946 32.253 L 85.946 31.233 L 86.763 31.233 L 86.763 30.552 L 82.953 30.552 L 82.953 29.872 L 87.239 29.872 L 87.239 28.511 L 88.464 28.511 L 88.464 27.831 L 83.225 27.831 L 83.225 27.49 L 84.926 27.49 L 84.926 26.129 L 83.769 26.129 L 83.769 25.109 L 84.517 25.109 L 84.517 23.748 L 84.722 23.748 L 84.722 22.727 L 84.79 22.727 L 84.79 21.707 L 86.831 21.707 L 86.831 21.503 L 66.622 21.503 L 66.622 21.503 Q 65.67 21.503 65.057 20.686 L 65.057 20.686 L 62.676 20.686 L 62.472 20.346 L 60.226 20.346 L 60.226 20.346 Q 60.09 19.938 60.09 19.665 L 60.09 19.665 L 60.09 18.985 L 53.898 18.985 L 53.898 17.964 L 62.54 17.964 L 62.54 17.284 L 56.892 17.284 L 56.892 15.923 L 60.703 15.923 L 60.703 14.562 L 68.528 14.562 L 68.528 13.201 L 60.771 13.201 L 60.771 12.861 L 61.859 12.861 L 61.859 11.5 L 60.226 11.5 L 60.226 10.14 L 65.602 10.14 L 65.602 9.459 L 56.008 9.459 L 56.008 9.459 Q 56.008 8.983 56.144 8.779 L 56.144 8.779 L 65.602 8.779 L 65.602 8.779 Q 65.67 8.575 65.806 8.404 L 65.806 8.404 L 65.806 8.404 Q 65.942 8.234 66.078 8.098 L 66.078 8.098 L 63.016 8.098 L 63.016 8.098 Q 63.424 7.69 64.173 7.69 L 64.173 7.69 L 100.167 7.69 L 100.167 7.69 Q 100.848 7.69 101.324 8.098 L 101.324 8.098 L 104.386 8.098 L 104.386 8.098 Q 104.726 8.37 104.93 8.779 L 104.93 8.779 L 95.472 8.779 L 95.472 8.779 Q 95.608 8.983 95.608 9.459 L 95.608 9.459 L 105.27 9.459 L 105.27 10.14 L 99.895 10.14 L 99.895 11.5 L 101.528 11.5 L 101.528 12.861 L 100.439 12.861 L 100.439 13.201 L 108.196 13.201 L 108.196 14.562 L 100.371 14.562 Z " fill="url(#_lgradient_5)"/></g></svg>