<svg xmlns="http://www.w3.org/2000/svg" width="512" height="512" fill="none" viewBox="0 0 512 512"><rect width="512" height="512" fill="#10141A"/><path fill="#4FA048" d="M128.364 300.734C128.364 293.452 130.953 287.141 136.131 281.801C141.471 276.461 147.863 273.791 155.307 273.791C162.75 273.791 169.061 276.461 174.239 281.801C179.579 287.141 182.249 293.452 182.249 300.734C182.249 308.177 179.579 314.569 174.239 319.909C169.061 325.249 162.75 327.919 155.307 327.919C147.863 327.919 141.471 325.249 136.131 319.909C130.953 314.569 128.364 308.177 128.364 300.734ZM282.643 179.856H319.052L313.955 225.731L355.703 206.556L366.869 241.023L321.722 250.247L352.791 284.228L323.664 305.345L300.847 265.538L278.031 305.345L248.904 284.228L279.973 250.247L234.826 241.023L245.991 206.556L287.74 225.731L282.643 179.856Z"/></svg>