<svg xmlns="http://www.w3.org/2000/svg" xmlns:svg="http://www.w3.org/2000/svg" id="svg5" width="512" height="512" version="1.1" viewBox="0 0 512 512" xml:space="preserve"><defs id="defs2"><filter style="color-interpolation-filters:sRGB" id="filter663" width="1" height="1" x="0" y="0"><feColorMatrix id="feColorMatrix659" result="colormatrix" values="1 0 0 0 0 0 1 0 0 0 0 0 1 0 0 0 0 0 5 -1"/><feComposite id="feComposite661" in2="colormatrix" k2=".307" operator="arithmetic" result="composite"/></filter></defs><g id="layer1"><path style="fill:#4c4c48;fill-opacity:1" id="path6759" d="m 71.058004,359.80563 -6.338184,-19.32685 -20.327256,4.86855 1.832789,14.9145 z"/><path style="fill:#4c4c48;fill-opacity:1" id="path6755" d="m 119.81097,319.78697 3.45104,41.40271 76.02169,-8.97051 7.701,-12.89037 -0.15728,-19.10323 z"/><path style="fill:#000" id="path351" d="m 28.361831,358.70184 c 14.614539,-0.16529 43.842629,-0.49588 74.792819,-1.7945 30.9502,-1.29863 63.62125,-3.56515 81.0375,-5.99189 17.41625,-2.42673 19.57798,-5.01368 19.31974,-36.62249 -0.25824,-31.60881 -2.93651,-92.23794 -4.70454,-122.82787 -1.76802,-30.58994 -2.62683,-31.13916 -3.70802,-32.33049 -1.08119,-1.19133 -2.38433,-3.02506 -3.37443,-4.35373 -0.9901,-1.32867 -1.66717,-2.15214 -2.31189,-5.91608 -0.64472,-3.76394 -1.25624,-10.46804 -1.10624,-14.65279 0.14999,-4.18475 1.06177,-5.84922 4.76513,-6.67926 3.70336,-0.83004 10.19683,-0.82528 13.43673,-2.31062 3.2399,-1.48534 3.2271,-4.46167 3.17419,-10.14495 -0.0529,-5.68328 -0.14595,-14.07313 -0.75848,-19.013691 -0.61253,-4.940563 -1.74535,-6.431712 -2.68748,-8.115981 -0.94213,-1.684269 -1.69314,-3.561604 -1.86196,-7.379534 -0.16882,-3.817931 0.24513,-9.57572 0.53757,-12.923269 0.29244,-3.347549 0.46343,-4.284348 3.10771,-5.452045 2.64428,-1.167696 7.76082,-2.56524 15.33995,-3.078918 7.57913,-0.513678 17.61999,-0.143701 24.1079,1.467897 6.48792,1.611597 9.4226,4.46375 10.7785,9.557349 1.3559,5.0936 1.13402,12.428313 0.32738,16.67632 -0.80664,4.248007 -2.1981,5.410173 -2.93015,10.343583 -0.73206,4.933409 -0.80456,13.636619 -0.18869,18.098499 0.61588,4.46188 1.91893,4.68303 21.76914,2.58818 19.8502,-2.09486 58.24626,-6.50527 78.43652,-8.57128 20.19026,-2.06601 22.17361,-1.78782 23.29577,-0.26061 1.12216,1.52722 1.38409,4.3024 1.55416,8.5822 0.17006,4.2798 0.24833,10.06399 -0.99752,14.54664 -1.24586,4.48264 -3.81563,7.66439 -5.26229,10.56794 -1.44666,2.90354 -1.77014,5.52798 -3.45565,25.35838 -1.68552,19.8304 -4.73298,56.86518 -5.49994,75.3614 -0.76696,18.49622 0.74553,18.45408 23.29269,12.08036 22.54716,-6.37373 66.12753,-19.07837 87.87619,-25.33412 21.74867,-6.25576 21.66562,-6.06307 22.12852,-5.51604 0.4629,0.54703 1.47046,1.4479 2.03909,3.19941 0.56863,1.75151 0.6993,4.35343 -2.52385,25.3973 -3.22315,21.04388 -9.79968,60.52832 -30.74825,94.04098 -20.94856,33.51265 -56.2679,61.05255 -75.84684,75.57567 -19.57894,14.52312 -23.41702,16.02896 -32.53202,17.87561 -9.115,1.84664 -23.50656,4.03388 -74.44461,5.11536 -50.93805,1.08147 -138.41898,1.05701 -182.73581,0.74311 -44.316836,-0.3139 -45.467953,-0.91782 -52.660073,-13.45937 -7.19212,-12.54154 -20.424092,-37.02025 -27.782956,-50.46513 -7.358863,-13.44488 -8.844366,-15.85531 -9.134152,-17.98582 -0.289787,-2.13051 0.617068,-3.98021 1.070605,-4.90528 0.453538,-0.92508 0.453498,-0.92513 15.068037,-1.09043 z"/><path style="fill:#4c4c48;fill-opacity:1" id="path533" d="m 61.924553,369.12316 c 29.666655,-0.86363 85.884517,-2.46422 114.901057,-5.57995 29.01654,-3.11572 30.83056,-7.74678 32.67976,-11.80932 1.84921,-4.06255 3.73335,-7.5559 3.81635,-38.86059 0.083,-31.30469 -1.63542,-90.41882 -3.12173,-121.65107 -1.48631,-31.23225 -2.74083,-34.5814 -4.88033,-37.24831 -2.1395,-2.66692 -5.16451,-4.6509 -6.84509,-6.87224 -1.68057,-2.22134 -2.01564,-4.68026 -2.10349,-6.91674 -0.0879,-2.23649 0.0717,-4.25014 3.01801,-5.52443 2.94628,-1.27429 8.67794,-1.80805 12.2305,-3.13137 3.55257,-1.32332 4.92666,-3.43637 5.50813,-9.45659 0.58147,-6.02022 0.37005,-15.94785 0.16229,-22.240181 -0.20776,-6.292331 -0.41191,-8.949167 -1.45163,-11.253324 -1.03971,-2.304158 -2.91576,-4.255376 -3.76942,-6.785067 -0.85366,-2.52969 -0.68379,-5.637481 0.0591,-8.345094 0.74292,-2.707612 2.05897,-5.014146 7.83132,-6.070677 5.77234,-1.056532 15.99933,-0.862713 22.317,0.551169 6.31766,1.413883 8.72576,4.046695 8.58433,10.324536 -0.14142,6.277842 -2.83113,16.200425 -3.74219,24.743168 -0.91106,8.54275 -0.0434,15.70641 2.28476,19.61769 2.32816,3.91128 6.1174,4.57528 11.98649,4.9414 5.8691,0.36611 13.81205,0.4343 30.34816,-1.31139 16.5361,-1.74569 41.65997,-5.30482 56.63534,-7.38683 14.97537,-2.08201 19.80218,-2.68688 21.93233,-0.98208 2.13016,1.70481 1.56712,5.71933 0.069,9.55526 -1.4981,3.83592 -3.93003,7.49136 -5.53111,10.56044 -1.60109,3.06908 -2.37076,5.55029 -3.95046,26.62901 -1.5797,21.07873 -3.96747,60.72636 -4.35893,80.96524 -0.39146,20.23889 1.21288,21.05595 3.82638,22.29833 2.6135,1.24239 6.2359,2.91004 27.70353,-2.53261 21.46762,-5.44265 60.77925,-17.99445 81.19773,-23.95996 20.41849,-5.96552 21.94239,-5.34523 22.03601,3.28383 0.0936,8.62905 -1.24176,25.26577 -7.49043,44.7041 -6.24868,19.43833 -17.41006,41.67757 -36.83716,64.28706 -19.4271,22.6095 -47.1189,45.58837 -65.76975,59.58786 -18.65084,13.9995 -28.2601,19.01907 -79.14237,21.10839 -50.88228,2.08932 -143.03434,1.24811 -190.85888,0.32728 -47.824546,-0.92082 -51.319768,-1.92153 -57.959404,-11.87156 -6.639635,-9.95002 -16.422463,-28.84908 -21.481853,-39.10386 -5.05939,-10.25477 -5.394368,-11.86402 -4.004327,-12.73263 1.390041,-0.8686 4.504283,-0.99525 34.170937,-1.85889 z"/><path style="fill:#000" id="path669" d="m 177.91364,361.25767 c 14.91921,-0.39914 40.40095,-2.98568 63.69874,-6.82691 23.2978,-3.84122 44.40954,-8.93664 57.04946,-13.18263 12.63993,-4.24598 16.80715,-7.64212 25.99234,-19.20156 9.18519,-11.55945 23.38749,-31.2811 34.11576,-42.09983 10.72827,-10.81873 17.98053,-12.73291 22.50306,-13.93112 4.52254,-1.1982 6.31513,-1.68037 4.64228,-2.30715 -1.67285,-0.62678 -6.81141,-1.39848 -11.79158,-1.40956 -4.98016,-0.0111 -9.80132,0.73876 -13.82614,2.7228 -4.02483,1.98405 -7.25222,5.20197 -13.37156,13.04475 -6.11933,7.84279 -15.12973,20.3093 -23.3352,31.06023 -8.20546,10.75092 -15.60502,19.78501 -34.94639,26.33563 -19.34137,6.55062 -50.62378,10.61728 -71.11814,13.20674 -20.49435,2.58946 -30.19965,3.70159 -38.94252,5.02359 -8.74287,1.322 -16.5227,2.85384 -18.23419,4.51457 -1.7115,1.66073 2.64487,3.44959 17.56408,3.05045 z"/><path style="fill:#000" id="path673" d="m 238.17834,329.94687 c -0.60761,-17.22013 -1.08598,-51.12275 -2.10036,-74.98505 -1.01438,-23.8623 -2.56475,-37.68222 0.0708,-50.15644 2.63553,-12.47423 9.45694,-23.60043 17.77277,-29.92394 8.31582,-6.32351 18.12408,-7.84318 30.33497,-7.80393 12.21089,0.0393 26.82268,1.63718 35.62477,13.17352 8.8021,11.53635 11.79439,33.00871 11.53278,57.72765 -0.26162,24.71894 -3.77683,52.68171 -6.63321,68.49079 -2.85638,15.80907 -5.05352,19.4631 -7.40351,22.57798 -2.35,3.11487 -4.85272,5.69049 -13.30784,8.72273 -8.45512,3.03223 -22.86234,6.52091 -33.6204,8.60545 -10.75806,2.08455 -17.86585,2.76463 -22.28948,2.84158 -4.42363,0.0769 -6.16284,-0.4497 -7.40039,-0.98139 -1.23755,-0.53168 -1.97326,-1.06883 -2.58087,-18.28895 z"/><path style="fill:#4c4c48;fill-opacity:1" id="path677" d="m 251.10816,341.9931 c -1.46061,-0.62269 -2.23001,-2.53615 -3.51379,-26.61705 -1.28378,-24.08089 -3.08086,-70.32741 -0.59603,-96.29864 2.48482,-25.97123 9.25138,-31.66594 17.66768,-35.57554 8.41631,-3.9096 18.48103,-6.0337 29.45589,-2.7561 10.97486,3.2776 22.85859,11.95545 26.26014,33.60485 3.40155,21.6494 -1.67823,56.26772 -5.28458,76.29844 -3.60636,20.03072 -5.73884,25.47185 -7.31564,28.85451 -1.57681,3.38266 -2.59796,4.70707 -10.99153,7.99303 -8.39357,3.28595 -24.15922,8.53343 -33.11694,11.49197 -8.95772,2.95855 -11.10459,3.62722 -12.5652,3.00453 z"/><path style="fill:#000" id="path681" d="m 117.95296,352.79264 c -0.36898,-4.0281 -1.10703,-12.08522 -1.80292,-18.74666 -0.6959,-6.66144 -1.34962,-11.92659 -0.488,-14.7308 0.86162,-2.80421 3.23782,-3.14591 17.91817,-3.31604 14.68035,-0.17013 41.66358,-0.16879 55.79442,-0.1559 14.13084,0.0129 15.40868,0.0373 16.19025,1.1951 0.78157,1.15778 1.06739,3.44523 0.77362,4.59895 -0.29378,1.15372 -1.16768,1.16978 -3.35278,1.20956 -2.18509,0.0398 -5.68184,0.10326 -18.00269,0.1739 -12.32084,0.0706 -33.4569,0.14838 -45.15021,0.18125 -11.6933,0.0329 -13.92172,0.0208 -15.4417,0.21166 -1.51997,0.19092 -2.33618,0.58554 -1.95594,6.49801 0.38024,5.91248 1.95473,17.31623 2.8133,23.59565 0.85858,6.27943 1.00021,7.42694 -0.2,7.85688 -1.20021,0.42995 -3.73146,0.1433 -5.08013,-0.73533 -1.34867,-0.87863 -1.49767,-2.34463 -1.57204,-3.07633 -0.0744,-0.73171 -0.0744,-0.73178 -0.0744,-0.73182 0,0 0,2e-5 -0.36898,-4.02808 z"/><path style="fill:#000" id="path689" d="m 399.41357,258.76033 63.76054,81.2384 -7.43858,7.39008 -66.10222,-84.79339 z"/><path style="fill:#000" id="path692" d="m 306.50529,334.66895 119.06217,48.82509 -5.10094,7.00738 -126.248,-50.88762 z"/><path style="fill:#000" id="path694" d="m 211.03529,441.677 136.24784,-85.49446 -9.9241,-5.47709 -137.98572,89.13544 z"/><path style="fill:#000" id="path696" d="m 148.58534,361.03308 22.72304,77.77318 7.60649,-0.33052 -20.5608,-75.55841 z"/><path style="fill:#000" id="path698" d="m 46.924447,416.83078 109.282113,-38.31277 3.42365,8.96831 -109.754073,37.40145 z"/><path style="fill:#000" id="path700" d="m 202.50707,152.41747 62.06588,17.50542 -10.6823,7.7075 -51.0031,-14.70904 z"/><path style="fill:#000" id="path702" d="m 315.41906,193.92549 -4.27968,-75.93392 9.42865,-0.8354 4.27617,87.92993 z"/><path style="fill:#000" id="path704" d="m 207.19662,125.03002 48.44664,-5.027 8.30154,7.31941 -63.35755,6.30966 z"/><path style="display:inline;fill:#000" id="path864" d="m 43.316723,361.10795 c -2.208973,-4.15613 -4.103815,-12.31578 -3.847614,-16.61191 0.256202,-4.29614 2.662824,-4.72744 7.317248,-5.70603 4.654425,-0.97859 11.556378,-2.50438 15.719941,-2.44905 4.163562,0.0553 5.588355,1.69053 7.393093,6.37247 1.804739,4.68193 3.989898,12.41012 4.940303,16.65569 0.950405,4.24557 0.666561,5.00896 -0.485634,5.33497 -1.152194,0.326 -3.173721,0.21512 -5.057288,-2.70952 -1.883567,-2.92465 -3.627883,-8.66357 -4.720063,-12.25668 -1.09218,-3.59312 -1.532002,-5.03971 -2.707552,-5.5245 -1.175551,-0.48479 -3.090535,-0.007 -5.695114,0.56589 -2.604579,0.57268 -5.900378,1.24041 -7.5767,2.43755 -1.676322,1.19715 -1.732682,2.9227 -1.20088,5.34057 0.531801,2.41786 1.649148,5.52163 2.276908,7.81011 0.627759,2.28848 0.761765,3.74547 -0.43182,4.39788 -1.193586,0.6524 -3.715856,0.49868 -5.924828,-3.65744 z"/><path style="fill:#000" id="path4960" d="m 236.63589,258.15391 81.44221,18.41539 3.42887,-13.38217 -84.67363,-17.52289 z"/></g><g id="layer2" style="display:inline"><path style="fill:orange;stroke-width:.655009" id="path2658" d="m 222.00991,435.30664 c 0.10898,-0.0999 27.29418,-17.17857 60.41155,-37.95267 l 60.2134,-37.7711 22.31773,8.98037 c 12.27476,4.9392 27.87791,11.21454 34.67368,13.9452 l 12.35595,4.96482 -3.35222,3.08238 c -4.98849,4.58693 -24.35125,20.03341 -31.83982,25.39994 -18.86753,13.52105 -33.81676,16.73555 -85.23837,18.32865 -21.26599,0.65884 -69.92587,1.37424 -69.5419,1.02241 z"/><path style="fill:gold;stroke-width:.655009" id="path2731" d="m 365.65503,358.55438 c -29.54091,-12.11178 -53.82942,-22.12003 -53.97448,-22.24054 -0.14507,-0.12052 0.59182,-0.86327 1.63752,-1.65057 3.72452,-2.80417 9.02617,-8.92875 19.47225,-22.49472 14.11247,-18.32739 22.15017,-27.86703 28.56062,-33.89752 7.77492,-7.31408 11.19704,-9.1389 21.20645,-11.30816 4.89963,-1.06186 8.61907,-1.57387 8.94475,-1.23133 1.84,1.93527 61.59659,79.01849 61.59659,79.45673 0,1.83682 -31.68668,35.49355 -33.33556,35.40813 -0.21857,-0.0113 -24.56724,-9.93023 -54.10814,-22.04202 z"/><path style="fill:#4169e1;stroke-width:.139131" id="path4102" d="m 217.07604,123.17697 c 0.36939,-3.5341 0.42907,-5.27702 0.42577,-12.43421 -0.002,-4.24699 -0.078,-9.50616 -0.16905,-11.687042 -0.34931,-8.369845 -0.59275,-9.391432 -3.2423,-13.606421 -2.16808,-3.449059 -2.56577,-4.766498 -2.44452,-8.098077 0.0836,-2.295652 0.49029,-4.177738 1.22769,-5.680819 1.15442,-2.353085 3.7532,-3.736985 8.26456,-4.401019 6.99375,-1.029423 18.34994,-0.366369 23.39386,1.365899 3.19554,1.097469 5.06161,2.817313 5.80552,5.350622 0.40406,1.375968 0.54297,3.461092 0.37465,5.623556 -0.2116,2.718349 -0.53363,4.835337 -1.74646,11.481074 -1.86549,10.222047 -2.19875,12.958907 -2.20664,18.121777 -0.007,4.46515 0.36317,7.52085 1.25094,10.33114 0.19176,0.60702 0.32842,1.11999 0.3037,1.13993 -0.0247,0.0199 -6.86934,0.73815 -15.21027,1.59603 -8.34093,0.85788 -15.37864,1.59583 -15.63937,1.63989 l -0.47404,0.0801 z"/><path style="fill:#9acd32;stroke-width:.655009" id="path2942" d="m 431.48343,299.01328 c -15.67109,-20.00077 -28.56083,-36.571 -28.64386,-36.82273 -0.13309,-0.40347 10.47338,-3.66154 62.70433,-19.26138 15.32927,-4.5784 20.8287,-5.67281 23.16253,-4.60945 2.30565,1.05053 2.7565,5.00754 1.80065,15.80405 -1.84317,20.81904 -7.69784,40.9882 -17.41446,59.99221 -3.99537,7.81424 -12.10085,21.3252 -12.76859,21.28387 -0.19124,-0.0119 -13.16951,-16.3858 -28.8406,-36.38657 z"/><path style="fill:peru;stroke-width:.655009" id="path4007" d="m 48.849113,356.47801 c -0.374226,-0.95363 -0.723843,-3.18383 -0.776926,-4.95601 -0.08801,-2.93833 0.07856,-3.3258 1.891168,-4.3992 2.70301,-1.60067 11.186758,-3.04655 12.16076,-2.07255 0.67001,0.67001 4.68312,12.08062 4.343165,12.34907 -0.08325,0.0657 -3.928296,0.27545 -8.544556,0.46604 l -8.3932,0.34653 z"/><path style="fill:#db7093;fill-opacity:1;stroke-width:.130948" id="path5729" d="m 125.56019,355.29185 c -0.17306,-0.95055 -1.80271,-13.393 -2.23391,-17.05592 -0.68158,-5.78986 -0.89275,-8.57123 -0.83931,-11.05444 0.0768,-3.56968 0.17887,-3.66203 4.22139,-3.82071 1.44769,-0.0568 8.43642,-0.10692 15.53051,-0.11133 17.6894,-0.011 58.89359,-0.24369 60.1377,-0.33962 l 1.01484,-0.0782 -7e-5,1.875 c -1.3e-4,3.5791 -0.33556,8.37466 -0.80431,11.49966 -0.68032,4.53539 -1.84859,7.44352 -3.82729,9.5271 -1.81274,1.90881 -3.85082,2.94812 -7.61193,3.88167 -6.20571,1.54032 -24.52127,3.45731 -48.90894,5.11903 -4.1087,0.27996 -15.68847,0.98339 -16.18839,0.98339 -0.36254,0 -0.42225,-0.0518 -0.49029,-0.42558 z"/><path style="fill:#b22222;fill-opacity:1;stroke-width:.239121" id="path6085" d="m 182.40798,435.40083 c -3.76398,-0.0633 -4.24347,-0.11663 -4.35209,-0.48413 -0.81644,-2.76213 -18.79724,-69.20385 -18.79724,-69.45856 0,-0.27652 0.58268,-0.38336 2.80967,-0.51517 11.73697,-0.69467 25.97875,-2.51993 33.77582,-4.32881 1.38093,-0.32037 4.28625,-0.75175 6.45627,-0.95864 23.63423,-2.25321 49.05887,-6.31164 70.54066,-11.2601 8.11873,-1.8702 18.09273,-4.52876 22.87699,-6.09783 1.20616,-0.39558 2.38981,-0.7267 2.63033,-0.73581 0.56713,-0.0215 32.38523,12.82278 32.39966,13.07903 0.006,0.10698 -28.1121,18.36174 -62.48472,40.56613 l -62.49567,40.37162 -9.56483,-0.0533 c -5.26066,-0.0293 -11.46835,-0.0853 -13.79485,-0.12443 z"/><path style="fill:#dc143c;fill-opacity:1;stroke-width:.200654" id="path6365" d="m 47.898942,413.91487 c -3.92585,-6.74929 -9.004786,-16.25871 -14.179262,-26.54819 -5.682264,-11.29922 -7.122425,-14.90743 -6.330785,-15.8613 0.999061,-1.2038 3.091407,-1.35916 28.284134,-2.10022 48.292891,-1.42056 72.546371,-2.35027 92.100001,-3.53047 l 2.10686,-0.12717 1.9456,6.69618 c 1.07009,3.6829 1.88273,6.75252 1.80589,6.82137 -0.0769,0.0688 -23.5259,8.32021 -52.10901,18.33636 -28.5831,10.01614 -52.07075,18.24958 -52.194776,18.29653 -0.124024,0.0469 -0.766918,-0.84544 -1.428652,-1.98309 z"/><path style="fill:red;fill-opacity:1;stroke-width:.200654" id="path6436" d="m 152.08708,435.20763 c -16.89898,-0.1942 -38.76398,-0.54706 -49.16013,-0.79336 -33.303802,-0.78899 -40.715739,-1.93496 -45.941189,-7.103 -1.366296,-1.35128 -3.306743,-3.72662 -3.044332,-3.72662 0.04049,0 23.125253,-7.85587 51.299481,-17.45748 28.17422,-9.60162 51.2556,-17.42775 51.29195,-17.3914 0.0363,0.0364 3.00543,10.12699 6.59796,22.42366 3.59253,12.29667 6.6583,22.78647 6.81282,23.31068 l 0.28096,0.9531 -2.54752,-0.0328 c -1.40114,-0.018 -8.41664,-0.10029 -15.59,-0.18273 z"/><path style="fill:#48d1cc;fill-opacity:1;stroke-width:.279856" id="path6830" d="m 210.88635,348.66259 c 1.05426,-2.77292 1.80514,-9.12322 2.24566,-18.99183 0.3724,-8.34271 0.20781,-44.59067 -0.28909,-63.66731 -1.26079,-48.40285 -2.54973,-80.7192 -3.82099,-95.80002 -0.24417,-2.89657 -0.40011,-5.31009 -0.34652,-5.36337 0.0866,-0.0861 41.928,11.88104 42.17614,12.06291 0.0551,0.0404 -0.93628,1.24575 -2.20317,2.6785 -2.88928,3.26754 -4.41247,5.39587 -6.57881,9.19243 -3.25721,5.70833 -5.68127,12.88497 -6.76509,20.02862 -0.73902,4.87098 -0.68066,21.0856 0.13185,36.63149 0.73891,14.13774 1.04341,22.80546 1.59761,45.47665 0.98028,40.10141 1.2411,47.5708 1.83151,52.45152 0.14753,1.21952 0.23755,2.24521 0.20005,2.2793 -0.0874,0.0794 -15.70391,2.17213 -21.75705,2.91559 -2.5397,0.31193 -5.09106,0.64061 -5.66969,0.73039 l -1.05205,0.16325 z"/><path style="fill:#4682b4;fill-opacity:1;stroke-width:.219273" id="path6832" d="m 312.79342,173.51314 c -5.24784,-3.54645 -12.57838,-5.63406 -22.25624,-6.33818 -4.3446,-0.3161 -13.42671,-0.13305 -17.21296,0.34692 -2.85287,0.36165 -7.04601,1.22592 -8.58901,1.77032 -0.89311,0.31511 -0.94383,0.30174 -30.56934,-8.05487 l -29.67475,-8.37051 -3.14883,-3.08647 c -3.30246,-3.23707 -3.78494,-3.93154 -4.4309,-6.37769 -0.41475,-1.57063 -0.48953,-5.21579 -0.1259,-6.13755 0.34884,-0.88425 1.25371,-1.80943 2.29175,-2.34316 2.31605,-1.19086 3.97063,-1.40718 33.46214,-4.37499 27.70135,-2.78766 28.48707,-2.85446 32.12355,-2.73118 8.51052,0.28853 21.15659,-0.64967 39.67326,-2.94331 3.85084,-0.477 7.01631,-0.84398 7.03438,-0.81552 0.0971,0.15306 2.76818,49.25703 2.70457,49.7201 l -0.0757,0.5511 z"/><path style="fill:#3cb371;fill-opacity:1;stroke-width:.27054" id="path6834" d="m 324.87923,306.52235 c 0.71259,-3.53526 2.1406,-13.08539 3.13512,-20.96689 2.51956,-19.96726 3.73912,-39.26314 3.44546,-54.5139 -0.35718,-18.54934 -2.21649,-30.65178 -6.40077,-41.66324 l -1.02803,-2.7054 -1.39669,-29.35364 c -0.76817,-16.1445 -1.46822,-30.52423 -1.55565,-31.95495 l -0.15897,-2.60131 1.18808,-0.16719 c 11.48007,-1.61549 35.68612,-4.87434 38.65793,-5.20451 6.33688,-0.70403 9.0583,-0.32094 10.21035,1.43731 0.72899,1.11257 0.64428,4.5582 -0.17141,6.97269 -0.69799,2.06607 -2.65209,6.11275 -4.50176,9.32253 -3.24691,5.63444 -3.7247,7.81436 -4.98328,22.73651 -2.34668,27.82305 -4.88115,75.82635 -4.88211,92.46787 -5.4e-4,8.11133 0.27647,11.87538 1.05861,14.38841 l 0.48005,1.54237 -0.95743,0.65276 c -1.63829,1.11694 -5.39201,5.07939 -8.5594,9.03535 -1.66973,2.08545 -7.03701,9.14842 -11.92728,15.6955 -11.97282,16.02916 -11.8539,15.87731 -11.65282,14.87973 z"/><path style="fill:#ba55d3;fill-opacity:1;stroke-width:.194267" id="path6905" d="m 282.1724,254.99154 -36.23074,-7.51727 -0.0655,-0.86344 c -0.0871,-1.14774 0.31638,-14.75496 0.56131,-18.93025 1.3895,-23.68675 5.01827,-35.12568 13.03628,-41.09404 1.71929,-1.2798 4.88454,-2.94517 7.88317,-4.14769 10.0918,-4.04704 20.15792,-4.25059 29.68336,-0.60025 8.8328,3.38492 15.65138,10.11783 19.57047,19.32458 2.34321,5.5047 3.70288,11.46582 4.45317,19.5238 0.32861,3.52923 0.32688,18.00904 -0.003,22.72921 -0.44334,6.34902 -1.24543,15.01315 -1.69503,18.30964 -0.0948,0.69482 -0.17998,0.82225 -0.53781,0.80431 -0.23386,-0.0117 -16.72904,-3.40409 -36.65594,-7.5386 z"/><path style="fill:#c71585;fill-opacity:1;stroke-width:.194267" id="path7321" d="m 251.41727,342.01069 c -0.86523,-0.27138 -1.08392,-0.55367 -1.49039,-1.92385 -1.03644,-3.49377 -1.95344,-15.90302 -3.00919,-40.72184 -0.62321,-14.65046 -1.23976,-38.65437 -0.99904,-38.89509 0.13766,-0.13766 71.037,15.83848 71.2801,16.06194 0.29203,0.26846 -2.41181,16.03587 -4.26219,24.85489 -1.85021,8.81823 -3.45057,14.3105 -5.30689,18.21272 -1.77342,3.72794 -3.38461,4.872 -11.17867,7.93767 -5.81104,2.28568 -22.71574,8.13862 -34.40419,11.91182 -7.72823,2.49479 -9.4896,2.91928 -10.62954,2.56174 z"/></g></svg>